# xmcd
#
# Track frame offsets:
#   150
#   21937
#   40046
#   51929
#   65954
#   85428
#   104105
#   118298
#   134981
#   147959
#   162854
#
# Disc length: 2420 seconds
#
# Revision: 0
# Processed by: cddbd v1.5.1PL0 Copyright (c) Steve Scherf et al.
# Submitted via: Media_Universe 3.0
#
DISCID=b109720b
DTITLE=Garth Brooks - No Fences
DYEAR=1900
DGENRE=Country
TTITLE0=The Thunder Rolls
TTITLE1=New Way To Fly
TTITLE2=Two Of A Kind, Working On A Full House
TTITLE3=Victim Of The Game
TTITLE4=Friends In Low Places
TTITLE5=This Aint Tennessee
TTITLE6=Wild Horses
TTITLE7=Unanswered Prayers
TTITLE8=Same Old Story
TTITLE9=Me Blue
TTITLE10=Wolves
EXTD=
EXTT0=
EXTT1=
EXTT2=
EXTT3=
EXTT4=
EXTT5=
EXTT6=
EXTT7=
EXTT8=
EXTT9=
EXTT10=
PLAYORDER=
